<?xml version="1.0" encoding="UTF-8"?>
<svg version="1.1" xmlns="http://www.w3.org/2000/svg" width="524" height="476">
<path d="M0 0 C1.75282395 2.82329857 2.80866965 5.9073064 4 9 C8.03737112 18.00060555 13.97090051 24.57874298 23.1875 28.4375 C28.12065315 30.26186675 32.9559687 31.01775929 38.19921875 31.140625 C38.93333984 31.15996094 39.66746094 31.17929687 40.42382812 31.19921875 C41.94438815 31.23332967 43.46538774 31.25132181 44.98632812 31.25390625 C47.19921875 31.328125 47.19921875 31.328125 51 32 C53.6988366 35.04605534 54.38962628 37.54824439 54.25 41.5625 C54.23453125 42.30628906 54.2190625 43.05007812 54.203125 43.81640625 C54.00282705 45.96960924 53.54599078 47.91205028 53 50 C53.74121566 49.99907821 54.48243132 49.99815641 55.24610806 49.99720669 C73.25540056 49.97515251 91.26469038 49.95858897 109.27399349 49.94818783 C117.9830416 49.94302463 126.69208071 49.93598149 135.40112305 49.92456055 C142.98913741 49.91461442 150.57714526 49.90814674 158.16516596 49.90591151 C162.18547119 49.90460428 166.20575778 49.90151766 170.22605705 49.89426994 C174.00573984 49.88751085 177.7853962 49.88538281 181.56508446 49.88689232 C182.95630283 49.88661594 184.34752203 49.88461015 185.7387352 49.88079453 C187.63013326 49.87585909 189.52154532 49.87760202 191.41294861 49.87974548 C192.47393233 49.87882369 193.53491606 49.8779019 194.6280508 49.87695217 C197 50 197 50 198 51 C198.29303423 53.96275253 198.52573432 56.90908609 198.71875 59.87890625 C198.78155151 60.79719711 198.84435303 61.71548798 198.90905762 62.66160583 C199.04234541 64.62622361 199.17333139 66.59099863 199.30224609 68.5559082 C199.49395766 71.4706341 199.69355883 74.38472803 199.89453125 77.29882812 C201.43713677 100.03319601 202.212693 122.7129277 202.1875 145.5 C202.18559662 147.29762283 202.18559662 147.29762283 202.18365479 149.13156128 C202.11960425 181.1549775 200.27972952 212.77167894 197.31891632 244.64826584 C197.12701695 246.72813962 196.93937439 248.80836055 196.75262451 250.88870239 C196.39808413 254.81829042 196.0170354 258.74507328 195.6328125 262.671875 C195.47640289 264.42264595 195.47640289 264.42264595 195.3168335 266.20878601 C194.6317959 272.93036009 193.29216893 278.91577805 190.96331787 285.26373291 C189.27168745 290.06874359 188.2485923 295.03766446 187.125 300 C179.32622734 333.23998123 167.83023158 370.16976842 143 395 C141.01490402 395.32076931 141.01490402 395.32076931 138.54071045 395.4183197 C137.60974171 395.45772202 136.67877296 395.49712435 135.71959305 395.53772068 C134.69934414 395.56902041 133.67909523 395.60032015 132.62792969 395.63256836 C131.55753826 395.67059791 130.48714684 395.70862745 129.38431931 395.74780941 C116.57305818 396.15204935 103.76767292 396.01905417 90.953125 395.87890625 C88.27797787 395.85443758 85.60283161 395.83050931 82.92767334 395.80735779 C77.28263819 395.75770162 71.63764994 395.70434437 65.99267578 395.64819336 C51.98768958 395.50922309 37.98252986 395.3896238 23.97734642 395.27245665 C21.76468655 395.25389838 19.55202861 395.23512067 17.33937073 395.21632767 C-1.13321668 395.06035455 -19.60473466 394.95221303 -38.078125 394.96484375 C-39.04672203 394.96546877 -40.01531906 394.96609379 -41.01326752 394.96673775 C-49.78877806 394.97402048 -58.5641989 394.99302461 -67.33964157 395.02821445 C-71.16392126 395.0430082 -74.98820081 395.0542247 -78.8125 395.0625 C-79.52639137 395.06406034 -80.24028275 395.06562069 -80.97580719 395.06722832 C-97.65964407 395.09027905 -114.32765705 394.57937162 -131 394 C-131.495 392.515 -131.495 392.515 -132 391 C-131.5153125 390.62230469 -131.030625 390.24460937 -130.53125 389.85546875 C-98.51346245 363.56393936 -93.8855337 309.48465105 -89.24743652 271.03100586 C-89.02136738 269.1753875 -88.78513808 267.32101419 -88.54785156 265.46679688 C-87.47055894 256.99547464 -86.67042597 248.51174785 -86 240 C-85.93319031 239.16400269 -85.86638062 238.32800537 -85.79754639 237.4666748 C-83.24811875 205.08197416 -82.7245567 172.77950004 -82.75 140.3125 C-82.7503336 139.38623432 -82.75066719 138.45996864 -82.75101089 137.50563431 C-82.76077415 117.25956259 -82.90711342 97.04366739 -83.77783203 76.81396484 C-84.02280921 70.98031946 -84.10074733 65.15084982 -84.125 59.3125 C-84.12969299 58.47736374 -84.13438599 57.64222748 -84.13922119 56.78178406 C-84.1234101 51.1234101 -84.1234101 51.1234101 -83 50 C-81.1903226 49.87669912 -79.37592163 49.82209817 -77.56225586 49.79467773 C-76.40112778 49.77473251 -75.23999969 49.75478729 -74.04368591 49.73423767 C-72.780168 49.71752518 -71.51665009 49.70081268 -70.21484375 49.68359375 C-68.92888809 49.66281265 -67.64293243 49.64203156 -66.31800842 49.62062073 C-62.89364096 49.56533824 -59.4692125 49.51595639 -56.04473877 49.46777344 C-52.55255686 49.41760335 -49.0604639 49.3618939 -45.56835938 49.30664062 C-38.71231667 49.1989836 -31.85619367 49.09755551 -25 49 C-25.67981934 48.66009033 -26.35963867 48.32018066 -27.06005859 47.9699707 C-31.70670573 45.64664714 -36.35335286 43.32332357 -41 41 C-41.75223271 30.46874202 -37.08351679 24.55520348 -30.4296875 16.6796875 C-23.8400864 9.41205671 -10.88229315 -4.39922489 0 0 Z " fill="#F0EC49" transform="translate(227,24)"/>
<path d="M0 0 C1.75282395 2.82329857 2.80866965 5.9073064 4 9 C8.03737112 18.00060555 13.97090051 24.57874298 23.1875 28.4375 C28.12065315 30.26186675 32.9559687 31.01775929 38.19921875 31.140625 C38.93333984 31.15996094 39.66746094 31.17929687 40.42382812 31.19921875 C41.94438815 31.23332967 43.46538774 31.25132181 44.98632812 31.25390625 C47.19921875 31.328125 47.19921875 31.328125 51 32 C53.6988366 35.04605534 54.38962628 37.54824439 54.25 41.5625 C54.23453125 42.30628906 54.2190625 43.05007812 54.203125 43.81640625 C54.00282705 45.96960924 53.54599078 47.91205028 53 50 C53.74121566 49.99907821 54.48243132 49.99815641 55.24610806 49.99720669 C73.25540056 49.97515251 91.26469038 49.95858897 109.27399349 49.94818783 C117.9830416 49.94302463 126.69208071 49.93598149 135.40112305 49.92456055 C142.98913741 49.91461442 150.57714526 49.90814674 158.16516596 49.90591151 C162.18547119 49.90460428 166.20575778 49.90151766 170.22605705 49.89426994 C174.00573984 49.88751085 177.7853962 49.88538281 181.56508446 49.88689232 C182.95630283 49.88661594 184.34752203 49.88461015 185.7387352 49.88079453 C187.63013326 49.87585909 189.52154532 49.87760202 191.41294861 49.87974548 C192.47393233 49.87882369 193.53491606 49.8779019 194.6280508 49.87695217 C197 50 197 50 198 51 C198.29303423 53.96275253 198.52573432 56.90908609 198.71875 59.87890625 C198.78155151 60.79719711 198.84435303 61.71548798 198.90905762 62.66160583 C199.04234541 64.62622361 199.17333139 66.59099863 199.30224609 68.5559082 C199.49395766 71.4706341 199.69355883 74.38472803 199.89453125 77.29882812 C201.43713677 100.03319601 202.212693 122.7129277 202.1875 145.5 C202.18559662 147.29762283 202.18559662 147.29762283 202.18365479 149.13156128 C202.11960425 181.1549775 200.27972952 212.77167894 197.31891632 244.64826584 C197.12701695 246.72813962 196.93937439 248.80836055 196.75262451 250.88870239 C196.39808413 254.81829042 196.0170354 258.74507328 195.6328125 262.671875 C195.47640289 264.42264595 195.47640289 264.42264595 195.3168335 266.20878601 C194.6317959 272.93036009 193.29216893 278.91577805 190.96331787 285.26373291 C189.27168745 290.06874359 188.2485923 295.03766446 187.125 300 C179.32622734 333.23998123 167.83023158 370.16976842 143 395 C141.01490402 395.32076931 141.01490402 395.32076931 138.54071045 395.4183197 C137.60974171 395.45772202 136.67877296 395.49712435 135.71959305 395.53772068 C134.69934414 395.56902041 133.67909523 395.60032015 132.62792969 395.63256836 C131.55753826 395.67059791 130.48714684 395.70862745 129.38431931 395.74780941 C116.57305818 396.15204935 103.76767292 396.01905417 90.953125 395.87890625 C88.27797787 395.85443758 85.60283161 395.83050931 82.92767334 395.80735779 C77.28263819 395.75770162 71.63764994 395.70434437 65.99267578 395.64819336 C51.98768958 395.50922309 37.98252986 395.3896238 23.97734642 395.27245665 C21.76468655 395.25389838 19.55202861 395.23512067 17.33937073 395.21632767 C-1.13321668 395.06035455 -19.60473466 394.95221303 -38.078125 394.96484375 C-39.04672203 394.96546877 -40.01531906 394.96609379 -41.01326752 394.96673775 C-49.78877806 394.97402048 -58.5641989 394.99302461 -67.33964157 395.02821445 C-71.16392126 395.0430082 -74.98820081 395.0542247 -78.8125 395.0625 C-79.52639137 395.06406034 -80.24028275 395.06562069 -80.97580719 395.06722832 C-97.65964407 395.09027905 -114.32765705 394.57937162 -131 394 C-131.495 392.515 -131.495 392.515 -132 391 C-131.5153125 390.62230469 -131.030625 390.24460937 -130.53125 389.85546875 C-98.51346245 363.56393936 -93.8855337 309.48465105 -89.24743652 271.03100586 C-89.02136738 269.1753875 -88.78513808 267.32101419 -88.54785156 265.46679688 C-87.47055894 256.99547464 -86.67042597 248.51174785 -86 240 C-85.93319031 239.16400269 -85.86638062 238.32800537 -85.79754639 237.4666748 C-83.24811875 205.08197416 -82.7245567 172.77950004 -82.75 140.3125 C-82.7503336 139.38623432 -82.75066719 138.45996864 -82.75101089 137.50563431 C-82.76077415 117.25956259 -82.90711342 97.04366739 -83.77783203 76.81396484 C-84.02280921 70.98031946 -84.10074733 65.15084982 -84.125 59.3125 C-84.12969299 58.47736374 -84.13438599 57.64222748 -84.13922119 56.78178406 C-84.1234101 51.1234101 -84.1234101 51.1234101 -83 50 C-81.1903226 49.87669912 -79.37592163 49.82209817 -77.56225586 49.79467773 C-76.40112778 49.77473251 -75.23999969 49.75478729 -74.04368591 49.73423767 C-72.780168 49.71752518 -71.51665009 49.70081268 -70.21484375 49.68359375 C-68.92888809 49.66281265 -67.64293243 49.64203156 -66.31800842 49.62062073 C-62.89364096 49.56533824 -59.4692125 49.51595639 -56.04473877 49.46777344 C-52.55255686 49.41760335 -49.0604639 49.3618939 -45.56835938 49.30664062 C-38.71231667 49.1989836 -31.85619367 49.09755551 -25 49 C-25.67981934 48.66009033 -26.35963867 48.32018066 -27.06005859 47.9699707 C-31.70670573 45.64664714 -36.35335286 43.32332357 -41 41 C-41.75223271 30.46874202 -37.08351679 24.55520348 -30.4296875 16.6796875 C-23.8400864 9.41205671 -10.88229315 -4.39922489 0 0 Z M-81 53 C-80.95010422 54.36359146 -80.95010422 54.36359146 -80.89920044 55.75473022 C-80.01659202 80.36020887 -79.88688546 104.9653671 -79.87661743 129.58374405 C-79.8750222 132.09012513 -79.87147782 134.59649654 -79.86743164 137.10287476 C-79.82766256 165.05444417 -80.35167205 192.91964604 -82.24731445 220.81787109 C-82.44009859 223.66335507 -82.62382322 226.50932867 -82.80664062 229.35546875 C-83.84596369 245.21548782 -85.16997637 261.06690308 -87.375 276.8125 C-87.5002002 277.71226562 -87.62540039 278.61203125 -87.75439453 279.5390625 C-92.96984462 316.19296688 -99.22250507 358.81211097 -124 388 C-124.66 388.33 -125.32 388.66 -126 389 C-126 389.66 -126 390.32 -126 391 C-97.35407168 391.45702584 -68.70798357 391.90200388 -40.06054688 392.25390625 C-39.2275339 392.26414385 -38.39452093 392.27438145 -37.53626513 392.28492928 C-29.01915003 392.3892885 -20.50200792 392.49117765 -11.98482978 392.59025669 C-7.69316685 392.6402791 -3.40151238 392.6909925 0.89013672 392.7421875 C2.15728866 392.75730031 2.15728866 392.75730031 3.45003963 392.77271843 C16.27382574 392.92721152 29.09624654 393.12976231 41.91885817 393.36104393 C53.98633525 393.57809997 66.05362555 393.74695392 78.12250042 393.86372375 C84.69563563 393.92964134 91.2663133 394.02004641 97.83810425 394.17041016 C103.97004829 394.31011413 110.09923566 394.38415437 116.23269463 394.40716553 C118.45657081 394.42705174 120.68039004 394.4708452 122.90324593 394.54107666 C133.89480693 395.24905738 133.89480693 395.24905738 143.94168091 391.65869141 C147.29661382 388.46179292 149.74596976 384.83577224 151.99124146 380.8026886 C153.00241563 378.99568317 154.0980542 377.28163298 155.24633789 375.55908203 C177.55995375 341.83187346 187.19232151 299.85335445 192.67333984 260.34960938 C192.89595496 258.74837779 193.125744 257.14813106 193.36181641 255.54882812 C198.39027778 221.29528838 199.51439931 186.67621247 199.39111328 152.10668945 C199.37408413 147.29260845 199.38415931 142.47902832 199.40147018 137.66496468 C199.48683567 109.34340025 198.12555901 81.23810807 196 53 C177.06787161 52.76635196 158.13603589 52.59003524 139.20276451 52.48187828 C130.41154144 52.43032281 121.62121434 52.36004395 112.83056641 52.24560547 C105.16815236 52.14590216 97.50638711 52.08141152 89.84334242 52.05911505 C85.78573955 52.04608137 81.72999264 52.01548171 77.67298508 51.94269943 C73.85238619 51.87471488 70.03440314 51.85390107 66.21325684 51.86892319 C64.81270742 51.86617629 63.41206887 51.84633504 62.012043 51.80794525 C57.82521947 51.69878966 54.00981605 51.73311358 50 53 C47.09849654 56.00807929 45.66234499 59.21312902 44 63 C42.44346539 65.13457395 40.7635399 67.02898482 39 69 C40.29603412 71.82868857 41.69189598 73.9701021 43.8203125 76.234375 C44.35527344 76.80800781 44.89023437 77.38164063 45.44140625 77.97265625 C45.99699219 78.55917969 46.55257812 79.14570312 47.125 79.75 C47.96998047 80.65298828 47.96998047 80.65298828 48.83203125 81.57421875 C50.21724146 83.05334151 51.6080729 84.52719641 53 86 C52.34 87.32 51.68 88.64 51 90 C47 90 47 90 44.52734375 87.953125 C43.24537109 86.61507812 43.24537109 86.61507812 41.9375 85.25 C41.08027344 84.36828125 40.22304688 83.4865625 39.33984375 82.578125 C37.41219543 80.45417193 35.66242449 78.33284486 34 76 C30.92980886 77.39803347 28.57626301 79.08359702 26 81.25 C18.0979676 87.52437124 8.36960663 93.17429327 -2 92 C-4.1640625 91.4140625 -4.1640625 91.4140625 -6 90 C-6.87109375 86.98046875 -6.87109375 86.98046875 -7.4375 83.1875 C-8.70932306 75.75015839 -10.64734769 68.80513545 -14 62 C-14.32225052 61.25753525 -14.64450104 60.5150705 -14.97651672 59.75010681 C-16.40927706 57.00785143 -17.70611397 55.09204683 -20 53 C-24.64457379 51.73072591 -29.14500482 51.95056477 -33.9296875 52.12109375 C-35.28870413 52.13789842 -36.64777561 52.15070085 -38.00686646 52.15968323 C-41.56922262 52.19390746 -45.12822966 52.28217119 -48.68927002 52.38201904 C-52.32884406 52.4744033 -55.96896425 52.51525728 -59.609375 52.56054688 C-66.74094645 52.65681768 -73.87025363 52.81023616 -81 53 Z " fill="#450000" transform="translate(227,24)"/>
<path d="M0 0 C4.65225863 1.55075288 6.22220085 5.45574128 8.8671875 9.43359375 C11.16455198 12.19800486 12.66516816 12.87520079 16 14 C16.495 14.99 16.495 14.99 17 16 C18.32148827 16.37756808 19.65835921 16.7018576 21 17 C21.70125 17.309375 22.4025 17.61875 23.125 17.9375 C30.07811933 20.50713106 37.28805074 21.23011449 44.65234375 21.55859375 C47.39962792 22.07513803 48.36897016 22.75596566 50 25 C49.6875 27.1875 49.6875 27.1875 49 29 C48.34 29 47.68 29 47 29 C47.495 31.97 47.495 31.97 48 35 C47.34 35 46.68 35 46 35 C46.04125 35.763125 46.0825 36.52625 46.125 37.3125 C46 40 46 40 44 43 C43.34 43 42.68 43 42 43 C41.938125 43.721875 41.87625 44.44375 41.8125 45.1875 C40.74007034 48.8997565 38.90242087 50.51221068 36 53 C34.515 53.495 34.515 53.495 33 54 C32.87431641 55.11568359 32.87431641 55.11568359 32.74609375 56.25390625 C30.75326224 63.58877824 21.47204264 68.19325078 15.26171875 71.7734375 C14.51535156 72.17820312 13.76898438 72.58296875 13 73 C12.36964844 73.37898438 11.73929688 73.75796875 11.08984375 74.1484375 C8.28339282 75.29200068 5.8957689 75.26484407 2.875 75.25 C1.82054687 75.25515625 0.76609375 75.2603125 -0.3203125 75.265625 C-3 75 -3 75 -5 73 C-5.50409206 70.91078608 -5.92908016 68.80218977 -6.3125 66.6875 C-9.29371596 52.19671397 -14.65665891 38.88368729 -27 30 C-28.63834629 28.95424705 -30.29367772 27.93072125 -32 27 C-29.29981907 24.93372159 -26.5444286 23.0295339 -23.6875 21.1875 C-18.24058747 17.565169 -13.32782062 13.82416895 -9.3125 8.625 C-8.549375 7.75875 -7.78625 6.8925 -7 6 C-5.68 6 -4.36 6 -3 6 C-2.690625 5.195625 -2.38125 4.39125 -2.0625 3.5625 C-1 1 -1 1 0 0 Z " fill="#BA0101" transform="translate(227,39)"/>
<path d="M0 0 C0.33 0.66 0.66 1.32 1 2 C1.74121566 1.99907821 2.48243132 1.99815641 3.24610806 1.99720669 C21.25540056 1.97515251 39.26469038 1.95858897 57.27399349 1.94818783 C65.9830416 1.94302463 74.69208071 1.93598149 83.40112305 1.92456055 C90.98913741 1.91461442 98.57714526 1.90814674 106.16516596 1.90591151 C110.18547119 1.90460428 114.20575778 1.90151766 118.22605705 1.89426994 C122.00573984 1.88751085 125.7853962 1.88538281 129.56508446 1.88689232 C130.95630283 1.88661594 132.34752203 1.88461015 133.7387352 1.88079453 C135.63013326 1.87585909 137.52154532 1.87760202 139.41294861 1.87974548 C140.47393233 1.87882369 141.53491606 1.8779019 142.6280508 1.87695217 C145 2 145 2 146 3 C146.29303423 5.96275253 146.52573432 8.90908609 146.71875 11.87890625 C146.78155151 12.79719711 146.84435303 13.71548798 146.90905762 14.66160583 C147.04234541 16.62622361 147.17333139 18.59099863 147.30224609 20.5559082 C147.49395766 23.4706341 147.69355883 26.38472803 147.89453125 29.29882812 C149.43713677 52.03319601 150.212693 74.7129277 150.1875 97.5 C150.18559662 99.29762283 150.18559662 99.29762283 150.18365479 101.13156128 C150.11960425 133.1549775 148.27972952 164.77167894 145.31891632 196.64826584 C145.12701695 198.72813962 144.93937439 200.80836055 144.75262451 202.88870239 C144.39808413 206.81829042 144.0170354 210.74507328 143.6328125 214.671875 C143.47640289 216.42264595 143.47640289 216.42264595 143.3168335 218.20878601 C142.6317959 224.93036009 141.29216893 230.91577805 138.96331787 237.26373291 C137.27168745 242.06874359 136.2485923 247.03766446 135.125 252 C127.32622734 285.23998123 115.83023158 322.16976842 91 347 C89.01490402 347.32076931 89.01490402 347.32076931 86.54071045 347.4183197 C85.60974171 347.45772202 84.67877296 347.49712435 83.71959305 347.53772068 C82.69934414 347.56902041 81.67909523 347.60032015 80.62792969 347.63256836 C79.55753826 347.67059791 78.48714684 347.70862745 77.38431931 347.74780941 C64.57305818 348.15204935 51.76767292 348.01905417 38.953125 347.87890625 C36.27797787 347.85443758 33.60283161 347.83050931 30.92767334 347.80735779 C25.28263819 347.75770162 19.63764994 347.70434437 13.99267578 347.64819336 C-0.01231042 347.50922309 -14.01747014 347.3896238 -28.02265358 347.27245665 C-30.23531345 347.25389838 -32.44797139 347.23512067 -34.66062927 347.21632767 C-53.13321668 347.06035455 -71.60473466 346.95221303 -90.078125 346.96484375 C-91.04672203 346.96546877 -92.01531906 346.96609379 -93.01326752 346.96673775 C-101.78877806 346.97402048 -110.5641989 346.99302461 -119.33964157 347.02821445 C-123.16392126 347.0430082 -126.98820081 347.0542247 -130.8125 347.0625 C-131.52639137 347.06406034 -132.24028275 347.06562069 -132.97580719 347.06722832 C-149.65964407 347.09027905 -166.32765705 346.57937162 -183 346 C-183.495 344.515 -183.495 344.515 -184 343 C-183.5153125 342.62230469 -183.030625 342.24460937 -182.53125 341.85546875 C-150.51346245 315.56393936 -145.8855337 261.48465105 -141.24743652 223.03100586 C-141.02136738 221.1753875 -140.78513808 219.32101419 -140.54785156 217.46679688 C-134.72326292 171.66497277 -134.44744541 125.10761671 -134 79 C-133.67 79 -133.34 79 -133 79 C-132.85478209 86.18174937 -132.7127529 93.36355717 -132.57275391 100.54541016 C-132.52495424 102.97934333 -132.47647262 105.41326323 -132.42724609 107.84716797 C-132.26470675 115.89784122 -132.11979256 123.94857294 -132 132 C-131.98559875 132.92256592 -131.97119751 133.84513184 -131.95635986 134.7956543 C-131.78348504 147.26494786 -132.30972036 159.62440886 -133.171875 172.06347656 C-133.37483321 174.99758879 -133.56710552 177.93225603 -133.7578125 180.8671875 C-134.8200302 196.88895714 -136.14735996 212.90540424 -138.375 228.8125 C-138.5002002 229.71226562 -138.62540039 230.61203125 -138.75439453 231.5390625 C-143.68660286 266.20235891 -149.43614199 306.59487828 -171.25 335.25 C-171.68666992 335.82379395 -172.12333984 336.39758789 -172.57324219 336.98876953 C-173.66298945 338.36897472 -174.82592396 339.69077852 -176 341 C-176.66 341 -177.32 341 -178 341 C-178 341.66 -178 342.32 -178 343 C-177.17603226 342.99777939 -176.35206451 342.99555878 -175.50312805 342.99327087 C-138.41944908 342.89828332 -101.34516525 342.87450859 -64.26568604 343.50408936 C-32.276849 344.04461138 -0.28559557 344.29214595 31.7065196 344.5457902 C33.81561923 344.56252475 35.92471833 344.57932341 38.03381729 344.59614182 C55.35585165 344.73423025 72.67790979 344.86909587 90 345 C90.44110107 344.07368774 90.44110107 344.07368774 90.89111328 343.12866211 C92.23088402 340.55678605 93.93815258 338.72282982 95.875 336.5625 C123.59356843 302.8819923 133.82722358 254.48475148 139.67333984 212.34960938 C139.89595496 210.74837779 140.125744 209.14813106 140.36181641 207.54882812 C145.58382673 171.97684603 146.48783852 136.10755687 146.3225708 100.21704102 C146.30905431 96.23483841 146.31442108 92.25274603 146.31945992 88.2705307 C146.33719279 69.42681021 146.27980987 50.64437832 144.69563293 31.85626221 C143.93918948 22.79300856 144 14.22165185 144 5 C96.15 5 48.3 5 -1 5 C-0.67 3.35 -0.34 1.7 0 0 Z " fill="#241F15" transform="translate(279,72)"/>
<path d="M0 0 C0.33 0.66 0.66 1.32 1 2 C1.74121566 1.99907821 2.48243132 1.99815641 3.24610806 1.99720669 C21.25540056 1.97515251 39.26469038 1.95858897 57.27399349 1.94818783 C65.9830416 1.94302463 74.69208071 1.93598149 83.40112305 1.92456055 C90.98913741 1.91461442 98.57714526 1.90814674 106.16516596 1.90591151 C110.18547119 1.90460428 114.20575778 1.90151766 118.22605705 1.89426994 C122.00573984 1.88751085 125.7853962 1.88538281 129.56508446 1.88689232 C130.95630283 1.88661594 132.34752203 1.88461015 133.7387352 1.88079453 C135.63013326 1.87585909 137.52154532 1.87760202 139.41294861 1.87974548 C140.47393233 1.87882369 141.53491606 1.8779019 142.6280508 1.87695217 C145 2 145 2 146 3 C146.29303423 5.96275253 146.52573432 8.90908609 146.71875 11.87890625 C146.81295227 13.25634254 146.81295227 13.25634254 146.90905762 14.66160583 C147.04234541 16.62622361 147.17333139 18.59099863 147.30224609 20.5559082 C147.49395766 23.4706341 147.69355883 26.38472803 147.89453125 29.29882812 C149.43714827 52.03336542 150.21091211 74.71281443 150.1875 97.5 C150.18656342 98.69509186 150.18562683 99.89018372 150.18466187 101.12149048 C150.11861647 140.35928924 147.03608078 178.98152603 143 218 C142.67 218 142.34 218 142 218 C141.77172151 215.47968207 141.56757124 212.96062092 141.375 210.4375 C141.31054688 209.75236328 141.24609375 209.06722656 141.1796875 208.36132812 C140.83561342 203.56579567 141.19571645 199.12034138 141.89819336 194.36450195 C143.17315167 185.26618962 143.93965611 176.14523211 144.60546875 166.984375 C144.6708956 166.08771873 144.73632244 165.19106247 144.80373192 164.2672348 C146.32078786 142.91931598 146.42107593 121.60899745 146.3225708 100.21704102 C146.30905431 96.23483841 146.31442108 92.25274603 146.31945992 88.2705307 C146.33719279 69.42681021 146.27980987 50.64437832 144.69563293 31.85626221 C143.93918948 22.79300856 144 14.22165185 144 5 C96.15 5 48.3 5 -1 5 C-0.67 3.35 -0.34 1.7 0 0 Z " fill="#55533C" transform="translate(279,72)"/>
<path d="M0 0 C0.33 0 0.66 0 1 0 C0.38273804 5.67355671 -0.27945952 11.33861055 -1 17 C-1.66 17 -2.32 17 -3 17 C-3.19335938 17.99902344 -3.38671875 18.99804688 -3.5859375 20.02734375 C-3.84632812 21.31769531 -4.10671875 22.60804688 -4.375 23.9375 C-4.75785156 25.86916016 -4.75785156 25.86916016 -5.1484375 27.83984375 C-5.42945312 28.88269531 -5.71046875 29.92554688 -6 31 C-6.66 31.33 -7.32 31.66 -8 32 C-8 34.31 -8 36.62 -8 39 C-9.11375 39.2475 -9.11375 39.2475 -10.25 39.5 C-14.13504221 41.61911393 -15.72169411 44.80815276 -17 49 C-16.67 49.99 -16.34 50.98 -16 52 C-3.57560103 52.13212248 8.848814 52.26261183 21.27325058 52.39115143 C27.04561945 52.45091911 32.81798191 52.51119955 38.59033203 52.57275391 C45.26333032 52.6438473 51.93634762 52.71294785 58.609375 52.78125 C60.22840477 52.79810852 60.22840477 52.79810852 61.88014221 52.81530762 C72.05885081 52.92015615 82.23667163 53.02252865 92.41601562 52.99609375 C93.10030262 52.99444969 93.78458961 52.99280563 94.48961258 52.99111176 C97.51532626 52.98209919 100.54073914 52.96511435 103.56634521 52.93762207 C104.56055481 52.93178101 105.5547644 52.92593994 106.57910156 52.91992188 C107.42071838 52.91150269 108.26233521 52.9030835 109.12945557 52.89440918 C111 53 111 53 112 54 C113.65717994 54.10828721 115.31895425 54.14685501 116.97962952 54.15821838 C118.0580159 54.1680072 119.13640228 54.17779602 120.24746704 54.18788147 C122.03741592 54.19651466 122.03741592 54.19651466 123.86352539 54.20532227 C125.11212845 54.21522186 126.36073151 54.22512146 127.64717102 54.23532104 C131.08088157 54.26157245 134.51456808 54.28340809 137.94831777 54.30332303 C141.5331522 54.32514424 145.1179437 54.35255178 148.70274353 54.37937927 C155.4954693 54.42935859 162.28821883 54.4742779 169.08099121 54.51740164 C176.81245543 54.56672934 184.54387659 54.62166398 192.27529919 54.67708123 C208.18349303 54.79098166 224.09172642 54.89780305 240 55 C240 53.02 240 51.04 240 49 C241.65 49 243.3 49 245 49 C245.66 47.35 246.32 45.7 247 44 C247.99 44.66 248.98 45.32 250 46 C247.78008296 50.41747024 245.23541855 54.33362499 241 57 C233.93773591 59.12299051 226.10107665 58.31991005 218.8203125 58.14453125 C216.52080296 58.12964444 214.22125795 58.11958415 211.92170715 58.11393738 C205.63748435 58.08436004 199.35598292 57.98577744 193.07273483 57.87512207 C187.11777825 57.78065987 181.16252861 57.73760844 175.20703876 57.69324327 C162.27657871 57.59460067 149.3475536 57.43020238 136.41817939 57.23819184 C124.23943601 57.05734973 112.06059393 56.89838337 99.88134766 56.75537109 C98.16886384 56.73517891 96.45638011 56.71497848 94.74389648 56.69476986 C92.16470558 56.66434293 89.58551468 56.63391669 87.00632334 56.60352701 C49.00287842 56.15480662 11.00123769 55.60628329 -27 55 C-27 54.34 -27 53.68 -27 53 C-26.319375 52.34 -25.63875 51.68 -24.9375 51 C-11.64631915 38.08321861 -4.19114377 17.74841164 0 0 Z " fill="#F7CD53" transform="translate(128,360)"/>
<path d="M0 0 C0.33 0 0.66 0 1 0 C1.14521791 7.18174937 1.2872471 14.36355717 1.42724609 21.54541016 C1.47504576 23.97934333 1.52352738 26.41326323 1.57275391 28.84716797 C1.73529325 36.89784122 1.88020744 44.94857294 2 53 C2.01440125 53.92256592 2.02880249 54.84513184 2.04364014 55.7956543 C2.21651496 68.26494786 1.69027964 80.62440886 0.828125 93.06347656 C0.62516679 95.99758879 0.43289448 98.93225603 0.2421875 101.8671875 C-0.8200302 117.88895714 -2.14735996 133.90540424 -4.375 149.8125 C-4.5002002 150.71226562 -4.62540039 151.61203125 -4.75439453 152.5390625 C-9.68660286 187.20235891 -15.43614199 227.59487828 -37.25 256.25 C-37.68666992 256.82379395 -38.12333984 257.39758789 -38.57324219 257.98876953 C-39.66298945 259.36897472 -40.82592396 260.69077852 -42 262 C-42.66 262 -43.32 262 -44 262 C-44 262.66 -44 263.32 -44 264 C-18.26 264 7.48 264 34 264 C34 264.33 34 264.66 34 265 C30.04 265.33 26.08 265.66 22 266 C22 266.33 22 266.66 22 267 C-1.72657909 267.92917338 -25.27441808 267.96700385 -49 267 C-49.495 265.515 -49.495 265.515 -50 264 C-49.5153125 263.62230469 -49.030625 263.24460937 -48.53125 262.85546875 C-16.51346245 236.56393936 -11.8855337 182.48465105 -7.24743652 144.03100586 C-7.02136738 142.1753875 -6.78513808 140.32101419 -6.54785156 138.46679688 C-0.72326292 92.66497277 -0.44744541 46.10761671 0 0 Z " fill="#332E1D" transform="translate(145,151)"/>
<path d="M0 0 C1.45427633 5.20041853 0.19061074 7.706406 -2.2890625 12.31640625 C-9.08144269 22.97020805 -19.85157648 33.81643693 -32 38 C-34.796875 38.125 -34.796875 38.125 -37 38 C-37.47353591 32.13259408 -36.43322127 29.30057732 -33 24.5625 C-32.59644287 24.00409424 -32.19288574 23.44568848 -31.77709961 22.87036133 C-28.31899062 18.19222014 -24.57413714 13.63078991 -20 10 C-19.34 10 -18.68 10 -18 10 C-17.67 9.01 -17.34 8.02 -17 7 C-14.453125 5.17578125 -14.453125 5.17578125 -11.25 3.3125 C-9.67992187 2.37857422 -9.67992187 2.37857422 -8.078125 1.42578125 C-5.02853536 0.01321752 -3.29916562 -0.323807 0 0 Z " fill="#F10404" transform="translate(225,26)"/>
<path d="M0 0 C7.83180299 -0.25552745 15.66262063 -0.45063563 23.49755192 -0.56993389 C27.13650852 -0.62721428 30.77260325 -0.70479445 34.40991211 -0.82983398 C37.92447597 -0.94988955 41.43630024 -1.01522357 44.95275688 -1.04364967 C46.93826254 -1.07369824 48.92267267 -1.15950063 50.9065094 -1.2462616 C54.58486095 -1.2487651 57.49826102 -1.13569091 61 0 C64.24639791 3.28407338 66.14725895 6.79987795 68 11 C68.47274857 11.99498505 68.47274857 11.99498505 68.95504761 13.0100708 C72.01781582 19.95347235 73.6136042 27.15035535 74.34765625 34.671875 C74.77751428 37.10488663 74.77751428 37.10488663 76.73046875 38.3203125 C79.35182607 39.10536616 81.51738544 39.19691091 84.25 39.125 C85.58804688 39.09792969 85.58804688 39.09792969 86.953125 39.0703125 C87.62859375 39.04710937 88.3040625 39.02390625 89 39 C88.67 39.99 88.34 40.98 88 42 C81.95985366 42.36980488 77.18357105 42.34772297 72 39 C71.125 35.75 71.125 35.75 71 32 C70.835 30.845 70.67 29.69 70.5 28.5 C70 25 69.5 21.5 69 18 C68.34 18 67.68 18 67 18 C66.814375 17.0409375 66.814375 17.0409375 66.625 16.0625 C66.315625 15.0415625 66.315625 15.0415625 66 14 C65.01 13.505 65.01 13.505 64 13 C64.0928125 11.88625 64.0928125 11.88625 64.1875 10.75 C63.96709928 7.51745608 63.02264742 6.4440323 61 4 C61 3.34 61 2.68 61 2 C32.29 2.495 32.29 2.495 3 3 C3.33 5.64 3.66 8.28 4 11 C4.07043597 12.78201274 4.10378604 14.56612895 4.08901978 16.34947205 C4.08342545 17.33403885 4.07783112 18.31860565 4.07206726 19.33300781 C4.06069229 20.38705811 4.04931732 21.4411084 4.03759766 22.52709961 C4.02959641 23.65853897 4.02159515 24.78997833 4.01335144 25.95570374 C3.98553447 29.68798019 3.94999307 33.42013725 3.9140625 37.15234375 C3.89225684 39.77144587 3.87080895 42.39055098 3.84970093 45.00965881 C3.80457644 50.50639538 3.75515875 56.00308062 3.703125 61.49975586 C3.6436704 67.78528704 3.59067196 74.07084599 3.54135668 80.35646433 C3.4933003 86.46358977 3.44061618 92.5706661 3.38599777 98.67773628 C3.36340539 101.24440147 3.34186746 103.8110762 3.32149124 106.37775993 C3.20996582 120.0932583 2.98596539 133.78492497 2.33230019 147.48668575 C1.96866501 155.3458483 1.96825263 163.17769986 2.11621666 171.04285526 C2.20181776 175.79170228 1.86281236 179.53655548 0 184 C-0.66 184 -1.32 184 -2 184 C-1.85819515 180.27066913 -1.71077791 176.54157866 -1.5625 172.8125 C-1.52318359 171.77673828 -1.48386719 170.74097656 -1.44335938 169.67382812 C-1.40146484 168.63291016 -1.35957031 167.59199219 -1.31640625 166.51953125 C-1.27974854 165.58214111 -1.24309082 164.64475098 -1.20532227 163.67895508 C-1.02362797 160.42336496 -0.7778331 157.18263704 -0.51489258 153.93286133 C1.35966071 129.89974681 1.16746045 105.71656104 1.12857056 81.62646103 C1.12495279 79.09192542 1.12337158 76.55739555 1.12231445 74.02285767 C1.10951496 49.337623 0.90275271 24.67114093 0 0 Z " fill="#EDF16F" transform="translate(146,77)"/>
<path d="M0 0 C0.66 0.33 1.32 0.66 2 1 C1.67 2.65 1.34 4.3 1 6 C48.52 6 96.04 6 145 6 C145 6.33 145 6.66 145 7 C143.88735936 6.9939037 143.88735936 6.9939037 142.75224113 6.98768425 C124.69933349 6.89220859 106.6470742 6.85193845 88.59391594 6.87302971 C79.86341449 6.88189966 71.13367928 6.87212005 62.40332031 6.81835938 C54.79338613 6.77154556 47.18434181 6.75980205 39.57430947 6.7900821 C35.54483031 6.80489276 31.51708411 6.80220311 27.48778915 6.75750351 C23.69315804 6.71596158 19.90146316 6.72139377 16.10685539 6.76252174 C14.71610224 6.769378 13.32514258 6.75921668 11.93466759 6.73056984 C7.77034615 6.65041222 3.97900805 6.71358509 0 8 C-2.88975712 11.01165303 -4.33364944 14.22001005 -6 18 C-7.55688277 20.13413762 -9.23656406 22.02910101 -11 24 C-9.70396588 26.82868857 -8.30810402 28.9701021 -6.1796875 31.234375 C-5.64472656 31.80800781 -5.10976563 32.38164063 -4.55859375 32.97265625 C-3.72521484 33.85244141 -3.72521484 33.85244141 -2.875 34.75 C-2.31167969 35.35199219 -1.74835938 35.95398438 -1.16796875 36.57421875 C0.21724146 38.05334151 1.6080729 39.52719641 3 41 C1.95125002 43.62187494 1.35068687 44.79371361 -1.125 46.25 C-1.74375 46.4975 -2.3625 46.745 -3 47 C-4.96143601 45.06555623 -6.91920394 43.12763179 -8.875 41.1875 C-9.43058594 40.64029297 -9.98617187 40.09308594 -10.55859375 39.52929688 C-11.09355469 38.99755859 -11.62851562 38.46582031 -12.1796875 37.91796875 C-12.67194824 37.43094482 -13.16420898 36.9439209 -13.67138672 36.44213867 C-15 35 -15 35 -17 32 C-20.07019114 33.39803347 -22.42373699 35.08359702 -25 37.25 C-31.65625759 42.53520121 -40.43983263 48.20590438 -49.1875 48.0625 C-50.445625 48.041875 -51.70375 48.02125 -53 48 C-53.33 47.34 -53.66 46.68 -54 46 C-53.26136719 45.92523438 -52.52273437 45.85046875 -51.76171875 45.7734375 C-34.62064868 43.55185027 -20.92258193 31.88051082 -10 19 C-5.62882252 13.14511999 -2.11774371 7.02419944 0 0 Z " fill="#0F0E03" transform="translate(278,69)"/>
<path d="M0 0 C20.79 0 41.58 0 63 0 C63 0.33 63 0.66 63 1 C43.2 1 23.4 1 3 1 C3.33 3.31 3.66 5.62 4 8 C4.13860006 10.23640555 4.24113431 12.47526875 4.31201172 14.71484375 C4.35335236 16.01977783 4.39469299 17.32471191 4.43728638 18.66918945 C4.47697941 20.09194414 4.51609515 21.51471503 4.5546875 22.9375 C4.5860914 24.0405397 4.5860914 24.0405397 4.61812973 25.16586304 C5.10117627 42.41369809 5.15386396 59.6600556 5.13037109 76.91357422 C5.12456377 81.21628379 5.12804584 85.51893245 5.13394356 89.82164001 C5.1375657 93.20013893 5.13640485 96.57862344 5.13381577 99.9571228 C5.13315675 101.54535937 5.1339383 103.13359732 5.13629532 104.72183228 C5.14578668 112.8750595 5.0062602 120.89395956 4 129 C3.67 129 3.34 129 3 129 C2.98018066 127.68773437 2.96036133 126.37546875 2.93994141 125.0234375 C2.49639552 96.33016135 1.80625791 67.6607917 0.66064453 38.98632812 C0.61715378 37.8652919 0.57366302 36.74425568 0.52885437 35.58924866 C0.44917722 33.54275387 0.36644959 31.49637336 0.27937317 29.45018005 C-0.10186942 19.61555924 0 9.87121309 0 0 Z " fill="#2B2A17" transform="translate(143,75)"/>
<path d="M0 0 C0.99 0.66 1.98 1.32 3 2 C0.89800516 6.55426344 -1.62547862 10.42207216 -6 13 C-13.98788663 15.15212077 -22.73566494 14.29727772 -30.921875 14.109375 C-33.43680473 14.09166391 -35.95177273 14.07880437 -38.4667511 14.07049561 C-44.48908131 14.03844011 -50.50877763 13.9564333 -56.53010362 13.85075545 C-63.43317527 13.73222835 -70.33632223 13.6757672 -77.24016154 13.62340736 C-90.13262124 13.52385267 -103.02344216 13.36096208 -115.9147768 13.16517639 C-123.76418864 13.04600039 -131.61353382 12.93962537 -139.46337891 12.85351562 C-140.40431711 12.84318928 -141.34525532 12.83286293 -142.3147068 12.82222366 C-144.12921584 12.8024235 -145.94372553 12.782683 -147.75823593 12.76300812 C-163.84045021 12.58624193 -179.9202905 12.33814537 -196 12 C-196 11.67 -196 11.34 -196 11 C-133.63 11 -71.26 11 -7 11 C-7 9.02 -7 7.04 -7 5 C-5.35 5 -3.7 5 -2 5 C-1.34 3.35 -0.68 1.7 0 0 Z " fill="#C2A74D" transform="translate(375,404)"/>
<path d="M0 0 C2.60182188 -0.02911854 5.16775242 -0.00443793 7.76541138 0.06729126 C9.19484762 0.07011417 10.62429836 0.0685244 12.0537262 0.06286621 C15.92436024 0.0600019 19.79188238 0.118696 23.66179419 0.18860579 C27.70952826 0.25121082 31.75733744 0.25699997 35.80548096 0.26885986 C43.46644156 0.29991554 51.12597152 0.38193782 58.78630269 0.48235476 C67.50916876 0.59421261 76.23210397 0.6491315 84.95550895 0.69930911 C102.89572051 0.80377607 120.83460124 0.97961407 138.77371216 1.20254517 C138.77371216 1.86254517 138.77371216 2.52254517 138.77371216 3.20254517 C91.58371216 3.20254517 44.39371216 3.20254517 -4.22628784 3.20254517 C-4.22628784 3.86254517 -4.22628784 4.52254517 -4.22628784 5.20254517 C-5.53758706 6.55755436 -6.87320471 7.8892586 -8.22628784 9.20254517 C-9.21628784 10.68754517 -9.21628784 10.68754517 -10.22628784 12.20254517 C-10.88628784 11.87254517 -11.54628784 11.54254517 -12.22628784 11.20254517 C-9.68915312 4.56265579 -7.43869795 0.62086307 0 0 Z " fill="#EFF373" transform="translate(283.2262878417969,75.79745483398438)"/>
<path d="M0 0 C10.98030811 4.81592461 16.88183462 12.20310826 22 23 C24.91735994 30.50650674 26.88736464 38.01937002 28 46 C29.58272601 47.58272601 31.38034003 47.34735747 33.5625 47.5625 C34.38878906 47.64628906 35.21507812 47.73007813 36.06640625 47.81640625 C36.70449219 47.87699219 37.34257812 47.93757813 38 48 C38 48.33 38 48.66 38 49 C36.39773045 49.22245393 34.79303233 49.42746669 33.1875 49.625 C32.29417969 49.74101563 31.40085937 49.85703125 30.48046875 49.9765625 C28 50 28 50 25 48 C24.2265625 44.98046875 24.2265625 44.98046875 23.625 41.1875 C22.31087343 33.75721682 20.26033964 26.83981306 17 20 C16.62670311 18.99957672 16.62670311 18.99957672 16.24586487 17.97894287 C15.08592806 15.46865699 14.05756165 13.86674762 12 12 C7.42792274 10.82039329 2.93581903 11.00147783 -1.76171875 11.10546875 C-3.1174217 11.10556742 -4.47313021 11.10170834 -5.82881165 11.09407043 C-9.38797676 11.08264855 -12.94519139 11.11624082 -16.50402832 11.1619873 C-22.20979644 11.22865614 -27.91575572 11.23107348 -33.62183571 11.22530556 C-35.61507124 11.23041328 -37.60820371 11.25865786 -39.60124207 11.28715515 C-40.80621841 11.29318253 -42.01119476 11.2992099 -43.25268555 11.30541992 C-44.31682175 11.3184465 -45.38095795 11.33147308 -46.4773407 11.34489441 C-47.72605705 11.17417168 -47.72605705 11.17417168 -49 11 C-49.66 10.01 -50.32 9.02 -51 8 C-22.29 7.505 -22.29 7.505 7 7 C3.7 5.35 0.4 3.7 -3 2 C-2.01 1.34 -1.02 0.68 0 0 Z " fill="#605136" transform="translate(195,66)"/>
<path d="M0 0 C0.33 0 0.66 0 1 0 C1.17991145 9.52121305 1.34557288 19.04255091 1.49477577 28.56429482 C1.56452518 32.98929836 1.63854371 37.41412993 1.72363281 41.83886719 C2.14006249 63.69394199 1.96320749 85.20794964 0 107 C-0.09065735 108.03598328 -0.1813147 109.07196655 -0.27471924 110.13934326 C-0.84119057 116.55663016 -1.4701319 122.96621719 -2.125 129.375 C-2.3090451 131.21349654 -2.49263824 133.05203838 -2.67578125 134.890625 C-3.11205462 139.26094911 -3.55417348 143.63064055 -4 148 C-4.33 148 -4.66 148 -5 148 C-5.22827849 145.47968207 -5.43242876 142.96062092 -5.625 140.4375 C-5.68945312 139.75236328 -5.75390625 139.06722656 -5.8203125 138.36132812 C-6.26805332 132.12094039 -5.44361572 126.23826288 -4.55664062 120.0612793 C-3.55456554 112.96513235 -2.97978681 105.83082429 -2.4375 98.6875 C-2.37307709 97.84979065 -2.30865417 97.0120813 -2.24227905 96.14898682 C0.12283636 64.19735309 -0.22529886 32.02337978 0 0 Z " fill="#484622" transform="translate(426,142)"/>
<path d="M0 0 C0.99 0.33 1.98 0.66 3 1 C2.67 1.66 2.34 2.32 2 3 C27.74 3 53.48 3 80 3 C80 3.33 80 3.66 80 4 C76.04 4.33 72.08 4.66 68 5 C68 5.33 68 5.66 68 6 C44.27342091 6.92917338 20.72558192 6.96700385 -3 6 C-3.33 5.01 -3.66 4.02 -4 3 C-2.1875 1.4375 -2.1875 1.4375 0 0 Z " fill="#5C5233" transform="translate(99,412)"/>
<path d="M0 0 C2 3 2 3 2 6 C1.34 6 0.68 6 0 6 C0 5.01 0 4.02 0 3 C-7.56900001 1.79584091 -12.9153374 5.86208024 -19 10 C-21.75 12.25 -21.75 12.25 -24 15 C-24.69738281 15.7425 -25.39476562 16.485 -26.11328125 17.25 C-35.48829804 27.21242768 -35.48829804 27.21242768 -39 40 C-37.35 40.33 -35.7 40.66 -34 41 C-34.33 41.66 -34.66 42.32 -35 43 C-39.875 42.125 -39.875 42.125 -41 41 C-41.80901022 31.77728352 -38.42803865 26.61759707 -32.8125 19.5 C-25.44925337 10.78481301 -12.72309819 -3.6755617 0 0 Z " fill="#4E3E3C" transform="translate(227,24)"/>
<path d="M0 0 C0.33 0 0.66 0 1 0 C1.14521791 7.18174937 1.2872471 14.36355717 1.42724609 21.54541016 C1.47504576 23.97934333 1.52352738 26.41326323 1.57275391 28.84716797 C2.41747581 70.68676098 2.41747581 70.68676098 1 88.75 C0.90460938 90.04292969 0.80921875 91.33585937 0.7109375 92.66796875 C0.48047603 95.77919865 0.24353313 98.88977102 0 102 C-0.33 102 -0.66 102 -1 102 C-2.53801316 92.34469516 -2.16582244 82.71143471 -1.66197205 72.98196411 C-0.8827522 57.87041583 -0.6674514 42.75298615 -0.4375 27.625 C-0.39453627 24.93097884 -0.35059903 22.23697384 -0.30664062 19.54296875 C-0.20107331 13.02869575 -0.0990693 6.5143749 0 0 Z " fill="#494835" transform="translate(145,151)"/>
<path d="M0 0 C0.66 0.33 1.32 0.66 2 1 C1.67 2.65 1.34 4.3 1 6 C48.52 6 96.04 6 145 6 C145 6.33 145 6.66 145 7 C96.82 7 48.64 7 -1 7 C-0.67 4.69 -0.34 2.38 0 0 Z " fill="#070200" transform="translate(278,69)"/>
<path d="M0 0 C2.5973192 0.51946384 4.64308784 1.30185756 7.0625 2.4375 C16.08342791 6.35548776 26.32567269 6.46332199 36 7 C36.57601781 19.99240182 32.70014128 29.4672198 23.98828125 39.26171875 C22.36154375 40.88845625 20.71776407 42.47019796 19 44 C18.67 43.01 18.34 42.02 18 41 C22.625 36.125 22.625 36.125 26 35 C26.33 33.35 26.66 31.7 27 30 C27.66 30 28.32 30 29 30 C29.13277344 29.43410156 29.26554687 28.86820313 29.40234375 28.28515625 C29.57894531 27.55167969 29.75554687 26.81820312 29.9375 26.0625 C30.11152344 25.33160156 30.28554688 24.60070312 30.46484375 23.84765625 C31 22 31 22 32 21 C32.04063832 19.33382885 32.042721 17.66611905 32 16 C32.66 16 33.32 16 34 16 C34 14.02 34 12.04 34 10 C32.65808594 9.92652344 32.65808594 9.92652344 31.2890625 9.8515625 C12.34267556 8.68003751 12.34267556 8.68003751 4 4 C3.01 3.67 2.02 3.34 1 3 C0.67 2.01 0.34 1.02 0 0 Z " fill="#74080A" transform="translate(242,52)"/>
<path d="M0 0 C0.4846875 0.38671875 0.969375 0.7734375 1.46875 1.171875 C10.11204172 7.88704779 18.18463338 11.82088414 29.24609375 12.1640625 C30.38606812 12.20430542 30.38606812 12.20430542 31.54907227 12.24536133 C33.08161365 12.28959864 34.61501755 12.31083097 36.14819336 12.30737305 C38.3046875 12.36328125 38.3046875 12.36328125 42 13 C44.79093818 16.13502645 45.37226935 18.68598463 45.1875 22.8125 C45.14689453 23.99779297 45.14689453 23.99779297 45.10546875 25.20703125 C45.07066406 25.79871094 45.03585937 26.39039062 45 27 C44.01 26.67 43.02 26.34 42 26 C42 22.7 42 19.4 42 16 C41.14019531 16.03480469 40.28039062 16.06960937 39.39453125 16.10546875 C27.09464619 16.38714551 12.82061213 15.1836392 3.2734375 6.4140625 C0 2.66515363 0 2.66515363 0 0 Z " fill="#3E2524" transform="translate(236,43)"/>
<path d="M0 0 C0.33 0 0.66 0 1 0 C1.2496 14.83007976 0.79893815 29.27949438 -1 44 C-1.19395597 45.67303292 -1.38666511 47.34621085 -1.578125 49.01953125 C-2.03789238 53.01482093 -2.51390695 57.00783151 -3 61 C-3.33 61 -3.66 61 -4 61 C-5.02362088 51.21665454 -4.8185431 42.26820798 -3.625 32.5 C-3.34408177 30.07317863 -3.06543032 27.64609378 -2.7890625 25.21875 C-2.58458496 23.44371094 -2.58458496 23.44371094 -2.37597656 21.6328125 C-1.86998482 16.74374943 -1.5502311 11.84941736 -1.25927734 6.94335938 C-1.04395878 4.49902731 -0.68925285 2.34560244 0 0 Z " fill="#31301D" transform="translate(143,246)"/>
<path d="M0 0 C0.33 0.66 0.66 1.32 1 2 C0.0625 4.625 0.0625 4.625 -1 7 C-0.34 7.33 0.32 7.66 1 8 C2.0194119 8.98020375 3.02246356 9.97803008 4 11 C4 10.34 4 9.68 4 9 C4.66 9 5.32 9 6 9 C6.33 8.01 6.66 7.02 7 6 C8.87525531 9.16449334 9.1825313 11.34937407 9 15 C9 16.32 9 17.64 9 19 C9.99 19 10.98 19 12 19 C13.1875 21.125 13.1875 21.125 14 24 C12.13207547 29.39622642 12.13207547 29.39622642 9.125 31 C6.39035696 31 4.45357109 30.15863079 2 29 C2.33 27.68 2.66 26.36 3 25 C4.32 25.66 5.64 26.32 7 27 C7.99 26.01 8.98 25.02 10 24 C8.70396588 21.17131143 7.30810402 19.0298979 5.1796875 16.765625 C4.64472656 16.19199219 4.10976563 15.61835937 3.55859375 15.02734375 C3.00300781 14.44082031 2.44742187 13.85429688 1.875 13.25 C1.31167969 12.64800781 0.74835938 12.04601562 0.16796875 11.42578125 C-1.21724146 9.94665849 -2.6080729 8.47280359 -4 7 C-2.79618552 4.50638429 -1.54571278 2.31856917 0 0 Z " fill="#E9EE57" transform="translate(270,88)"/>
<path d="M0 0 C7.23981313 8.57946359 11.30362762 21.08776353 12.33984375 32.14453125 C12.63750006 35.37204973 12.63750006 35.37204973 14.71875 36.78125 C17.31593539 37.43502425 19.55765731 37.54700244 22.234375 37.4765625 C23.57242188 37.44949219 23.57242188 37.44949219 24.9375 37.421875 C25.61296875 37.39867187 26.2884375 37.37546875 26.984375 37.3515625 C26.654375 38.3415625 26.324375 39.3315625 25.984375 40.3515625 C19.94422866 40.72136738 15.16794605 40.69928547 9.984375 37.3515625 C9.109375 34.1015625 9.109375 34.1015625 8.984375 30.3515625 C8.736875 28.6190625 8.736875 28.6190625 8.484375 26.8515625 C7.984375 23.3515625 7.484375 19.8515625 6.984375 16.3515625 C6.324375 16.3515625 5.664375 16.3515625 4.984375 16.3515625 C4.860625 15.7121875 4.736875 15.0728125 4.609375 14.4140625 C4.403125 13.7334375 4.196875 13.0528125 3.984375 12.3515625 C3.324375 12.0215625 2.664375 11.6915625 1.984375 11.3515625 C2.04625 10.6090625 2.108125 9.8665625 2.171875 9.1015625 C1.95147428 5.86901858 1.00702242 4.7955948 -1.015625 2.3515625 C-1.015625 1.6915625 -1.015625 1.0315625 -1.015625 0.3515625 C-3.325625 0.3515625 -5.635625 0.3515625 -8.015625 0.3515625 C-8.015625 0.0215625 -8.015625 -0.3084375 -8.015625 -0.6484375 C-2.59914681 -2.12565882 -2.59914681 -2.12565882 0 0 Z " fill="#E1E262" transform="translate(208.015625,78.6484375)"/>
<path d="M0 0 C0.33 0 0.66 0 1 0 C1.04642838 7.8497645 1.08192244 15.69949658 1.10362434 23.54936409 C1.11404243 27.19474274 1.12816533 30.84002714 1.15087891 34.48535156 C1.17267804 38.00612179 1.18458347 41.5268016 1.18975449 45.04763412 C1.19522478 47.03838841 1.21082641 49.02910654 1.22659302 51.01980591 C1.22674408 52.24061859 1.22689514 53.46143127 1.22705078 54.71923828 C1.231492 55.78957306 1.23593323 56.85990784 1.24050903 57.962677 C0.98069866 61.2437513 0.16038227 63.93080451 -1 67 C-1.66 67 -2.32 67 -3 67 C-2.85819515 63.27066913 -2.71077791 59.54157866 -2.5625 55.8125 C-2.52318359 54.77673828 -2.48386719 53.74097656 -2.44335938 52.67382812 C-2.22841666 47.33332842 -1.93983968 42.0144472 -1.5 36.6875 C-0.89700155 29.19534283 -0.66053783 21.69886797 -0.4375 14.1875 C-0.3941496 12.80142384 -0.35053114 11.41535604 -0.30664062 10.02929688 C-0.20180703 6.68626996 -0.09963877 3.34318509 0 0 Z " fill="#DFE46E" transform="translate(147,194)"/>
<path d="M0 0 C3.21965664 1.36216242 4.81687435 2.72531153 6.75 5.625 C7.17796875 6.25664063 7.6059375 6.88828125 8.046875 7.5390625 C8.36140625 8.02117187 8.6759375 8.50328125 9 9 C6.98177083 8.73958333 4.96354167 8.47916667 2.9453125 8.21875 C0.99501656 7.9627515 0.99501656 7.9627515 -1 8 C-1.66 8.66 -2.32 9.32 -3 10 C-4.62703017 10.55815786 -6.27693868 11.05133145 -7.9375 11.5 C-11.19307756 12.38221837 -13.14636776 13.09757851 -16 15 C-18.1875 14.625 -18.1875 14.625 -20 14 C-19.2265625 13.57589844 -18.453125 13.15179688 -17.65625 12.71484375 C-11.12343449 9.03609244 -5.39280279 5.21832975 0 0 Z " fill="#EDF24E" transform="translate(259,100)"/>
<path d="M0 0 C0.99 0 1.98 0 3 0 C0.09726133 13.18327144 -5.6603429 25.65204296 -11 38 C-11.33 38 -11.66 38 -12 38 C-12 36.02 -12 34.04 -12 32 C-11.34 32 -10.68 32 -10 32 C-9.88679144 26.91696314 -9.88679144 26.91696314 -11 22 C-9.5625 18.8125 -9.5625 18.8125 -8 16 C-7.01 16.33 -6.02 16.66 -5 17 C-3.11608215 13.73454239 -2.50712033 10.71888239 -2 7 C-1.34 7 -0.68 7 0 7 C0 4.69 0 2.38 0 0 Z " fill="#ECDA4D" transform="translate(403,345)"/>
<path d="M0 0 C1.11791992 1.74316406 1.11791992 1.74316406 2 4 C1.35668945 6.01464844 1.35668945 6.01464844 0.11328125 8.109375 C-0.33080078 8.86347656 -0.77488281 9.61757813 -1.23242188 10.39453125 C-1.71259766 11.17183594 -2.19277344 11.94914062 -2.6875 12.75 C-3.14833984 13.54277344 -3.60917969 14.33554687 -4.08398438 15.15234375 C-6.68110647 19.46973413 -6.68110647 19.46973413 -8 21 C-8.99 21 -9.98 21 -11 21 C-12.46511628 15.13953488 -12.46511628 15.13953488 -11 12 C-10.21625 11.566875 -9.4325 11.13375 -8.625 10.6875 C-4.96638695 8.33553447 -4.44880487 6.04140305 -3 2 C-2.01 2.33 -1.02 2.66 0 3 C0 2.01 0 1.02 0 0 Z " fill="#F0CF48" transform="translate(389,381)"/>
<path d="M0 0 C0.495 1.485 0.495 1.485 1 3 C-0.6435704 4.69493197 -2.31022856 6.35174628 -4 8 C-4.53496094 8.54269531 -5.06992187 9.08539063 -5.62109375 9.64453125 C-12.43361909 16.13474356 -23.53041345 23.22081289 -33.1875 23.0625 C-35.0746875 23.0315625 -35.0746875 23.0315625 -37 23 C-37.33 22.34 -37.66 21.68 -38 21 C-37.26136719 20.92523438 -36.52273437 20.85046875 -35.76171875 20.7734375 C-21.05318752 18.86712214 -10.01831898 10.53207893 0 0 Z " fill="#3B1C05" transform="translate(262,94)"/>
<path d="M0 0 C0.33 0 0.66 0 1 0 C1.91786994 11.85582008 -0.71983358 23.42554056 -3 35 C-3.16790039 35.88252441 -3.33580078 36.76504883 -3.50878906 37.67431641 C-3.9377628 39.79777838 -4.46008907 41.90199966 -5 44 C-5.99 44.495 -5.99 44.495 -7 45 C-7.25030921 38.9341735 -6.28692743 33.37976794 -5.125 27.4375 C-3.67643725 19.80089602 -2.38150326 12.19567036 -1.39453125 4.484375 C-1 2 -1 2 0 0 Z " fill="#292515" transform="translate(138,300)"/>
<path d="M0 0 C0.33 0 0.66 0 1 0 C0.38273804 5.67355671 -0.27945952 11.33861055 -1 17 C-1.66 17 -2.32 17 -3 17 C-3.15855469 17.96421875 -3.31710938 18.9284375 -3.48046875 19.921875 C-3.71378906 21.18515625 -3.94710937 22.4484375 -4.1875 23.75 C-4.40792969 25.00296875 -4.62835938 26.2559375 -4.85546875 27.546875 C-6.1816655 31.54809658 -7.58487592 32.66561139 -11 35 C-12.31165257 37.11660427 -12.31165257 37.11660427 -13 39 C-13.66 38.67 -14.32 38.34 -15 38 C-14.56429687 37.175 -14.12859375 36.35 -13.6796875 35.5 C-10.32348498 28.99100117 -7.26020897 22.48555724 -4.6875 15.625 C-4.32470947 14.66400391 -4.32470947 14.66400391 -3.95458984 13.68359375 C-2.30619233 9.17634755 -1.10107212 4.66275613 0 0 Z " fill="#E1CC5A" transform="translate(128,360)"/>
<path d="M0 0 C0.33 0 0.66 0 1 0 C1.68680445 22.6263911 1.68680445 22.6263911 -2 30 C-2.22950319 32.204364 -2.41075933 34.41392173 -2.5625 36.625 C-2.64628906 37.81351562 -2.73007813 39.00203125 -2.81640625 40.2265625 C-2.90728516 41.59941406 -2.90728516 41.59941406 -3 43 C-3.66 43 -4.32 43 -5 43 C-5 45.97 -5 48.94 -5 52 C-9.42802309 45.35796537 -5.44814642 34.26028043 -4.0625 26.75 C-2.46442178 17.8543684 -1.07742592 8.97382382 0 0 Z " fill="#E7EB6B" transform="translate(142,284)"/>
<path d="M0 0 C0.33 0 0.66 0 1 0 C2.04985524 10.60801146 1.79361195 20.32898213 0.5625 30.9375 C0.41222713 32.31432438 0.26313405 33.69127805 0.11523438 35.06835938 C-0.24501802 38.38035723 -0.61687211 41.69058431 -1 45 C-1.33 45 -1.66 45 -2 45 C-2.88385363 35.24177819 -3.0868081 26.31329023 -1.546875 16.60546875 C-0.71103956 11.0949251 -0.35622795 5.55903094 0 0 Z " fill="#353320" transform="translate(423,245)"/>
<path d="M0 0 C-1.3841562 4.70950708 -4.02495748 7.15405145 -7.75 10.125 C-8.26304687 10.55425781 -8.77609375 10.98351563 -9.3046875 11.42578125 C-17.35557692 18 -17.35557692 18 -22 18 C-22 18.66 -22 19.32 -22 20 C-22.99 19.67 -23.98 19.34 -25 19 C-24 16 -24 16 -22.13671875 15 C-21.32847656 14.67 -20.52023438 14.34 -19.6875 14 C-14.1697091 11.42821579 -10.23896413 7.86616843 -5.9362793 3.65820312 C-2.17611189 0 -2.17611189 0 0 0 Z " fill="#4D0101" transform="translate(217,47)"/>
<path d="M0 0 C0.99 0.33 1.98 0.66 3 1 C3.94921875 2.92578125 3.94921875 2.92578125 4.6875 5.3125 C4.93886719 6.09238281 5.19023437 6.87226562 5.44921875 7.67578125 C6 10 6 10 6 14 C6.66 14 7.32 14 8 14 C8.33 17.96 8.66 21.92 9 26 C14.445 25.01 14.445 25.01 20 24 C19.34 24.99 18.68 25.98 18 27 C15.6875 27.36328125 15.6875 27.36328125 13 27.3125 C12.113125 27.30863281 11.22625 27.30476563 10.3125 27.30078125 C8 27 8 27 6 25 C5.44700844 22.87199584 4.98095927 20.72099328 4.5625 18.5625 C3.29363401 12.28938192 1.76939549 6.14896304 0 0 Z " fill="#CD0D0C" transform="translate(216,87)"/>
<path d="M0 0 C2.12038635 2.61514317 4.13091744 5.19637616 6 8 C6.99 8.33 7.98 8.66 9 9 C10.40113616 10.95309888 11.73339467 12.95708818 13 15 C13.99 16.485 13.99 16.485 15 18 C12.875 18 12.875 18 10 17 C7.72364958 14.51772057 5.85944724 11.80280316 4 9 C3.34 8.01 2.68 7.02 2 6 C1.34 6 0.68 6 0 6 C-0.474375 6.825 -0.94875 7.65 -1.4375 8.5 C-1.953125 9.325 -2.46875 10.15 -3 11 C-3.99 11 -4.98 11 -6 11 C-4.54955729 6.89041233 -2.48889248 3.56741255 0 0 Z " fill="#7A0907" transform="translate(227,34)"/>
<path d="M0 0 C0.33 0 0.66 0 1 0 C1.34233275 10.67650271 -3.14945 18.46819298 -10.0859375 26.37890625 C-11.6778111 27.98702346 -13.28448021 29.52572518 -15 31 C-15.33 30.01 -15.66 29.02 -16 28 C-11.375 23.125 -11.375 23.125 -8 22 C-7.67 20.35 -7.34 18.7 -7 17 C-6.34 17 -5.68 17 -5 17 C-4.86722656 16.43410156 -4.73445313 15.86820313 -4.59765625 15.28515625 C-4.42105469 14.55167969 -4.24445313 13.81820312 -4.0625 13.0625 C-3.88847656 12.33160156 -3.71445312 11.60070312 -3.53515625 10.84765625 C-3 9 -3 9 -2 8 C-1.95936168 6.33382885 -1.957279 4.66611905 -2 3 C-1.34 3 -0.68 3 0 3 C0 2.01 0 1.02 0 0 Z " fill="#810606" transform="translate(276,65)"/>
<path d="M0 0 C0.66 0.99 1.32 1.98 2 3 C0.60784291 5.04425682 -0.78858367 7.08537555 -2.1875 9.125 C-2.57486328 9.69476563 -2.96222656 10.26453125 -3.36132812 10.8515625 C-6.04656375 14.75735977 -8.91822713 18.39821217 -12 22 C-12.99 21.34 -13.98 20.68 -15 20 C-14.50371094 19.47792969 -14.00742187 18.95585937 -13.49609375 18.41796875 C-8.21217413 12.69288696 -3.99530925 6.67965766 0 0 Z " fill="#262111" transform="translate(384,395)"/>
<path d="M0 0 C0.99 0.33 1.98 0.66 3 1 C2.47599609 1.74443359 2.47599609 1.74443359 1.94140625 2.50390625 C-1.14110751 7.10584605 -2.65389941 10.46239061 -3 16 C-1.35 16.33 0.3 16.66 2 17 C1.67 17.66 1.34 18.32 1 19 C-3.875 18.125 -3.875 18.125 -5 17 C-5.56412992 10.56891887 -4.39786473 6.47206327 -1 1 C-0.67 0.67 -0.34 0.34 0 0 Z " fill="#472321" transform="translate(191,48)"/>
<path d="M0 0 C0.66 0.66 1.32 1.32 2 2 C-1.64540306 8.30835707 -5.48981359 14.27430236 -10 20 C-10.99 19.34 -11.98 18.68 -13 18 C-12.56429688 17.53851563 -12.12859375 17.07703125 -11.6796875 16.6015625 C-6.98582193 11.46066211 -3.39445124 6.06773702 0 0 Z " fill="#2C0C01" transform="translate(276,75)"/>
<path d="M0 0 C0.99 0 1.98 0 3 0 C0.75424696 9.29820555 -2.54923511 18.09948344 -6 27 C-6.33 27 -6.66 27 -7 27 C-7 24.69 -7 22.38 -7 20 C-6.34 20 -5.68 20 -5 20 C-4.87625 19.34 -4.7525 18.68 -4.625 18 C-3.85479462 14.30301417 -2.93049337 10.65994058 -2 7 C-1.34 7 -0.68 7 0 7 C0 4.69 0 2.38 0 0 Z " fill="#E2D961" transform="translate(403,345)"/>
<path d="M0 0 C0.33 0 0.66 0 1 0 C3.48477157 13.655976 3.48477157 13.655976 2 20 C1.814375 20.804375 1.62875 21.60875 1.4375 22.4375 C1.293125 22.953125 1.14875 23.46875 1 24 C0.34 24 -0.32 24 -1 24 C-0.67 16.08 -0.34 8.16 0 0 Z " fill="#D3D659" transform="translate(145,237)"/>
<path d="M0 0 C0.33 0.99 0.66 1.98 1 3 C-1.92936422 6.02090685 -4.9445442 8.92344194 -8.0625 11.75 C-8.71347656 12.34296875 -9.36445313 12.9359375 -10.03515625 13.546875 C-12.06438445 15.04761633 -13.53381312 15.5825608 -16 16 C-14.61556897 12.7084446 -13.17922268 11.134583 -10.25 9.125 C-6.4188513 6.38447027 -3.24598837 3.40828779 0 0 Z " fill="#381604" transform="translate(262,94)"/>
<path d="M0 0 C6.1326336 2.68975158 10.77800098 5.72556064 15 11 C15.33 11.99 15.66 12.98 16 14 C15.01 14 14.02 14 13 14 C12.7525 13.21625 12.505 12.4325 12.25 11.625 C10.76274587 8.50176632 10.06415729 8.36184768 7 7 C3.66666667 5.33333333 0.33333333 3.66666667 -3 2 C-2.01 1.34 -1.02 0.68 0 0 Z " fill="#3A0C04" transform="translate(195,66)"/>
<path d="M0 0 C0.33 0 0.66 0 1 0 C1.23576736 7.62314474 0.83717315 14.58569409 -1 22 C-1.66 21.67 -2.32 21.34 -3 21 C-2.53752467 13.80729161 -1.74922933 6.9969173 0 0 Z " fill="#302D1B" transform="translate(138,300)"/>
<path d="M0 0 C13.365 0.495 13.365 0.495 27 1 C27 1.33 27 1.66 27 2 C18.75 2 10.5 2 2 2 C2 2.66 2 3.32 2 4 C0.68870078 5.35500919 -0.64691687 6.68671343 -2 8 C-2.99 9.485 -2.99 9.485 -4 11 C-4.66 10.67 -5.32 10.34 -6 10 C-4.02 6.7 -2.04 3.4 0 0 Z " fill="#EBEF5B" transform="translate(277,77)"/>
<path d="M0 0 C0.33 0 0.66 0 1 0 C1 6.6 1 13.2 1 20 C0.67 19.34 0.34 18.68 0 18 C-0.66 18 -1.32 18 -2 18 C-1.85946128 15.37461716 -1.71281053 12.74982573 -1.5625 10.125 C-1.52318359 9.37863281 -1.48386719 8.63226563 -1.44335938 7.86328125 C-1.11328125 2.2265625 -1.11328125 2.2265625 0 0 Z " fill="#110E02" transform="translate(420,280)"/>
<path d="M0 0 C1.2421875 1.546875 1.2421875 1.546875 2 4 C0.82035284 6.62012083 -0.36110729 8.83953006 -1.875 11.25 C-2.26558594 11.8996875 -2.65617187 12.549375 -3.05859375 13.21875 C-4.02477715 14.82120052 -5.01056172 16.41180293 -6 18 C-6.625 16.125 -6.625 16.125 -7 14 C-6.34 13.34 -5.68 12.68 -5 12 C-4.32059533 9.57284794 -4.32059533 9.57284794 -3.875 6.875 C-3.70742188 5.96492188 -3.53984375 5.05484375 -3.3671875 4.1171875 C-3.24601562 3.41851562 -3.12484375 2.71984375 -3 2 C-2.01 2.33 -1.02 2.66 0 3 C0 2.01 0 1.02 0 0 Z " fill="#E6CD53" transform="translate(389,381)"/>
<path d="M0 0 C0 0.66 0 1.32 0 2 C-0.99 2.33 -1.98 2.66 -3 3 C-3.45375 3.61875 -3.9075 4.2375 -4.375 4.875 C-6 7 -6 7 -8.25 8.25 C-12.26635513 10.80586236 -14.99148569 14.34990051 -18 18 C-18.66 17.67 -19.32 17.34 -20 17 C-18.89718873 15.72799029 -17.79269231 14.45744147 -16.6875 13.1875 C-16.07261719 12.47980469 -15.45773438 11.77210937 -14.82421875 11.04296875 C-11.55088953 7.3771204 -11.55088953 7.3771204 -10 6 C-9.34 6 -8.68 6 -8 6 C-7.67 5.01 -7.34 4.02 -7 3 C-2.66666667 0 -2.66666667 0 0 0 Z " fill="#C11312" transform="translate(215,30)"/>
<path d="M0 0 C0.33 0 0.66 0 1 0 C1.24042276 4.08718695 0.42258812 7.17679443 -1 11 C0.65 11 2.3 11 4 11 C0.77208445 13.1519437 -0.28400809 13.20086443 -4 13 C-4.45543788 7.30702655 -3.58764877 4.45738181 0 0 Z " fill="#C80D0F" transform="translate(192,51)"/>
<path d="M0 0 C0.66 0.33 1.32 0.66 2 1 C0.53587448 2.96680861 -0.93287727 4.92975859 -2.41015625 6.88671875 C-3.6840986 8.58009175 -4.93900524 10.28777862 -6.1875 12 C-6.785625 12.66 -7.38375 13.32 -8 14 C-8.99 14 -9.98 14 -11 14 C-9.42219077 10.28954753 -7.09296752 7.70093616 -4.375 4.75 C-3.55773437 3.85796875 -2.74046875 2.9659375 -1.8984375 2.046875 C-1.27195313 1.37140625 -0.64546875 0.6959375 0 0 Z " fill="#4D2D2D" transform="translate(203,34)"/>
<path d="M0 0 C0.66 0 1.32 0 2 0 C2 6.93 2 13.86 2 21 C-0.34026817 18.65973183 -0.2861186 18.08470945 -0.44921875 14.90234375 C-0.49240234 14.10119141 -0.53558594 13.30003906 -0.58007812 12.47460938 C-0.61552734 11.63736328 -0.65097656 10.80011719 -0.6875 9.9375 C-0.73455078 9.09638672 -0.78160156 8.25527344 -0.83007812 7.38867188 C-0.93466494 5.26093035 -0.97271747 3.1301357 -1 1 C-0.67 0.67 -0.34 0.34 0 0 Z " fill="#322F18" transform="translate(423,75)"/>
<path d="M0 0 C2.30039124 3.45058686 2.4738275 5.94095502 3 10 C4.58272601 11.58272601 6.38034003 11.34735747 8.5625 11.5625 C9.38878906 11.64628906 10.21507812 11.73007813 11.06640625 11.81640625 C11.70449219 11.87699219 12.34257812 11.93757813 13 12 C13 12.33 13 12.66 13 13 C11.39773045 13.22245393 9.79303233 13.42746669 8.1875 13.625 C7.29417969 13.74101563 6.40085938 13.85703125 5.48046875 13.9765625 C3 14 3 14 0 12 C-0.546875 9.94140625 -0.546875 9.94140625 -0.75 7.5625 C-0.82734375 6.78003906 -0.9046875 5.99757813 -0.984375 5.19140625 C-1 3 -1 3 0 0 Z " fill="#501305" transform="translate(220,102)"/>
<path d="M0 0 C0.33 0 0.66 0 1 0 C1.93959624 5.29653879 1.98841115 10.08668517 1.5625 15.4375 C1.48418945 16.53481445 1.48418945 16.53481445 1.40429688 17.65429688 C1.27615124 19.43668622 1.1390184 21.2184257 1 23 C0.67 23 0.34 23 0 23 C-0.72526532 15.15597666 -1.21074074 7.80255144 0 0 Z " fill="#535231" transform="translate(139,284)"/>
<path d="M0 0 C0 3 0 3 -1.875 5.1875 C-4 7 -4 7 -6 7 C-6 7.66 -6 8.32 -6 9 C-7.24176695 9.70226141 -8.49385599 10.38629109 -9.75 11.0625 C-10.44609375 11.44535156 -11.1421875 11.82820313 -11.859375 12.22265625 C-14.36140628 13.1312406 -15.5332355 12.88336837 -18 12 C-17.20335937 11.55269531 -16.40671875 11.10539062 -15.5859375 10.64453125 C-9.98671032 7.44983837 -4.75868075 4.36212402 0 0 Z " fill="#DEE068" transform="translate(257,102)"/>
<path d="M0 0 C0.33 0 0.66 0 1 0 C1.6976874 8.14684214 2.28162626 15.88303369 1 24 C0.67 24 0.34 24 0 24 C-1.06162705 15.84997076 -0.84388104 8.16617194 0 0 Z " fill="#403E22" transform="translate(423,245)"/>
<path d="M0 0 C0.78375 0.33 1.5675 0.66 2.375 1 C6.99361869 2.27410171 11.24249356 2.16923936 16 2 C15.67 2.99 15.34 3.98 15 5 C8.80112515 5.37952295 4.5522888 4.8352113 -1 2 C-0.67 1.34 -0.34 0.68 0 0 Z " fill="#ECEB64" transform="translate(219,114)"/>
<path d="M0 0 C0.99 0 1.98 0 3 0 C3 1.65 3 3.3 3 5 C1.88625 5.2784375 1.88625 5.2784375 0.75 5.5625 C-3.16528579 7.60912666 -4.04375275 10.0875055 -6 14 C-7 11 -7 11 -5.5625 7.8125 C-5.046875 6.884375 -4.53125 5.95625 -4 5 C-3.34 5 -2.68 5 -2 5 C-1.34 3.35 -0.68 1.7 0 0 Z " fill="#F8D041" transform="translate(117,394)"/>
<path d="M0 0 C0.99 1.32 1.98 2.64 3 4 C2.67 4.66 2.34 5.32 2 6 C1.34 6 0.68 6 0 6 C-0.474375 6.825 -0.94875 7.65 -1.4375 8.5 C-1.953125 9.325 -2.46875 10.15 -3 11 C-3.99 11 -4.98 11 -6 11 C-4.54955729 6.89041233 -2.48889248 3.56741255 0 0 Z " fill="#88090A" transform="translate(227,34)"/>
<path d="M0 0 C0.99 0.66 1.98 1.32 3 2 C2.09827532 3.17825358 1.17798498 4.34231577 0.25 5.5 C-0.51570313 6.47453125 -0.51570313 6.47453125 -1.296875 7.46875 C-3 9 -3 9 -7 9 C-7 7.68 -7 6.36 -7 5 C-5.35 5 -3.7 5 -2 5 C-1.34 3.35 -0.68 1.7 0 0 Z " fill="#ECCA4E" transform="translate(375,404)"/>
<path d="M0 0 C1.78821774 2.68232661 3.20142604 5.30288961 4.625 8.1875 C5.07101563 9.08855469 5.51703125 9.98960938 5.9765625 10.91796875 C6.31429687 11.60503906 6.65203125 12.29210938 7 13 C3.62626229 12.39627851 3.07234147 12.08407252 0.6875 9.3125 C-1.23477602 5.53914336 -1.14141939 3.99496787 0 0 Z " fill="#4B3333" transform="translate(229,30)"/>
<path d="M0 0 C0.66 0 1.32 0 2 0 C1.8125 2.75 1.8125 2.75 1 6 C-1.4375 8.125 -1.4375 8.125 -4 10 C-5.31165257 12.11660427 -5.31165257 12.11660427 -6 14 C-6.66 13.67 -7.32 13.34 -8 13 C-6.68 10.36 -5.36 7.72 -4 5 C-3.01 5 -2.02 5 -1 5 C-0.67 3.35 -0.34 1.7 0 0 Z " fill="#E7C94F" transform="translate(121,385)"/>
<path d="M0 0 C0.33 0 0.66 0 1 0 C1 2.31 1 4.62 1 7 C0.34 7 -0.32 7 -1 7 C-1 9.97 -1 12.94 -1 16 C-3.36574234 12.4513865 -3.10865265 11.4235475 -2.625 7.3125 C-2.51414063 6.31863281 -2.40328125 5.32476562 -2.2890625 4.30078125 C-2.19367188 3.54152344 -2.09828125 2.78226562 -2 2 C-1.34 2 -0.68 2 0 2 C0 1.34 0 0.68 0 0 Z " fill="#DBD95A" transform="translate(138,320)"/>
<path d="M0 0 C0.33 1.32 0.66 2.64 1 4 C1.66 4 2.32 4 3 4 C2.25 10.625 2.25 10.625 0 14 C-0.91297308 9.02936879 -0.91297308 4.97063121 0 0 Z " fill="#343320" transform="translate(417,294)"/>
<path d="M0 0 C0.66 0 1.32 0 2 0 C1.40762384 3.57026711 0.02819396 5.45816451 -2.375 8.125 C-2.98085938 8.80820313 -3.58671875 9.49140625 -4.2109375 10.1953125 C-6 12 -6 12 -9 14 C-9 11 -9 11 -6.6875 8.375 C-4 6 -4 6 -1 5 C-0.67 3.35 -0.34 1.7 0 0 Z " fill="#8A0B0E" transform="translate(269,82)"/>
<path d="M0 0 C3.25195722 4.87793583 3.11325659 9.22391379 3 15 C2.34 15 1.68 15 1 15 C-0.32286246 10.03926578 -0.08893197 5.08888488 0 0 Z " fill="#DBD65F" transform="translate(217,99)"/>
<path d="M0 0 C4.55015893 1.51671964 6.50057264 5.16891053 9 9 C6.03 8.505 6.03 8.505 3 8 C2.896875 7.401875 2.79375 6.80375 2.6875 6.1875 C1.91123545 3.71756736 0.92911079 2.67748765 -1 1 C-0.67 0.67 -0.34 0.34 0 0 Z " fill="#D9DF64" transform="translate(259,100)"/>
<path d="M0 0 C0.66 0.99 1.32 1.98 2 3 C0.02 5.31 -1.96 7.62 -4 10 C-4.99 9.34 -5.98 8.68 -7 8 C-4.69 5.36 -2.38 2.72 0 0 Z " fill="#48392D" transform="translate(107,403)"/>
<path d="M0 0 C0.33 0.66 0.66 1.32 1 2 C0.0625 4.625 0.0625 4.625 -1 7 C-0.34 7.33 0.32 7.66 1 8 C1.625 10.0625 1.625 10.0625 2 12 C0.02 10.35 -1.96 8.7 -4 7 C-2.79618552 4.50638429 -1.54571278 2.31856917 0 0 Z " fill="#DEDF67" transform="translate(270,88)"/>
<path d="M0 0 C0.66 0 1.32 0 2 0 C2 1.65 2 3.3 2 5 C3.65 5.33 5.3 5.66 7 6 C6.67 6.66 6.34 7.32 6 8 C1.125 7.125 1.125 7.125 0 6 C-0.04080783 4.00041636 -0.04254356 1.99954746 0 0 Z " fill="#301B1A" transform="translate(186,59)"/>
<path d="M0 0 C0.33 0.66 0.66 1.32 1 2 C0.01 3.485 0.01 3.485 -1 5 C-1 6.32 -1 7.64 -1 9 C-2.98 9.99 -2.98 9.99 -5 11 C-5.66 10.34 -6.32 9.68 -7 9 C-4.69 6.03 -2.38 3.06 0 0 Z " fill="#E1C254" transform="translate(112,400)"/>
<path d="M0 0 C0.66 0.66 1.32 1.32 2 2 C0.35 4.97 -1.3 7.94 -3 11 C-3.33 11 -3.66 11 -4 11 C-4.56638908 6.18569279 -2.82561627 3.79692186 0 0 Z " fill="#321404" transform="translate(276,75)"/>
<path d="M0 0 C0.33 1.32 0.66 2.64 1 4 C-1.4375 6.75 -1.4375 6.75 -4 9 C-4.66 8.34 -5.32 7.68 -6 7 C-4.02 4.69 -2.04 2.38 0 0 Z " fill="#392D1A" transform="translate(375,408)"/>
<path d="M0 0 C0.99 0.66 1.98 1.32 3 2 C2.649375 2.5775 2.29875 3.155 1.9375 3.75 C0.85082593 6.35801776 1.06934867 7.39417629 2 10 C1.01 10 0.02 10 -1 10 C-2.15837626 5.94568308 -1.83691257 3.78187881 0 0 Z " fill="#F6D640" transform="translate(125,377)"/>
<path d="M0 0 C0.66 0.33 1.32 0.66 2 1 C1.67 2.32 1.34 3.64 1 5 C-0.32 5.33 -1.64 5.66 -3 6 C-3 5.34 -3 4.68 -3 4 C-4.65 3.67 -6.3 3.34 -8 3 C-8 2.67 -8 2.34 -8 2 C-6.865625 1.855625 -5.73125 1.71125 -4.5625 1.5625 C-1.19222799 1.38828522 -1.19222799 1.38828522 0 0 Z " fill="#E7ED54" transform="translate(244,113)"/>
<path d="M0 0 C2.86697492 1.28519565 4.97607712 2.57129254 7 5 C7 5.66 7 6.32 7 7 C7.66 7.33 8.32 7.66 9 8 C6 8 6 8 4.39453125 6.7578125 C3.87246094 6.21898438 3.35039062 5.68015625 2.8125 5.125 C2.28269531 4.59132813 1.75289063 4.05765625 1.20703125 3.5078125 C0 2 0 2 0 0 Z " fill="#D9DD66" transform="translate(272,100)"/>
<path d="M0 0 C2 2 2 2 2 5 C1.071875 5.12375 1.071875 5.12375 0.125 5.25 C-2.18437567 5.81258459 -2.18437567 5.81258459 -3.25 8.0625 C-3.4975 8.701875 -3.745 9.34125 -4 10 C-5 7 -5 7 -4.25 5 C-3.01451365 3.02322184 -1.71960324 1.56327567 0 0 Z " fill="#EDF252" transform="translate(274,85)"/>
<path d="M0 0 C0.78375 0.04125 1.5675 0.0825 2.375 0.125 C3 2 3 2 3.375 4.125 C2.715 4.785 2.055 5.445 1.375 6.125 C-0.605 4.805 -2.585 3.485 -4.625 2.125 C-2.625 0.125 -2.625 0.125 0 0 Z " fill="#D50303" transform="translate(204.625,65.875)"/>
<path d="M0 0 C0.99 0.66 1.98 1.32 3 2 C0.69 4.97 -1.62 7.94 -4 11 C-4.66 10.67 -5.32 10.34 -6 10 C-4.02 6.7 -2.04 3.4 0 0 Z " fill="#DCDD64" transform="translate(277,77)"/>
<path d="M0 0 C0.33 1.65 0.66 3.3 1 5 C0.34 4.01 -0.32 3.02 -1 2 C-1.7425 2.350625 -2.485 2.70125 -3.25 3.0625 C-6.1322726 4.04509293 -7.21176345 4.0326802 -10 3 C-6.48812804 0.59185923 -4.27343092 -0.36629408 0 0 Z " fill="#BC1014" transform="translate(225,26)"/>
<path d="M0 0 C0.99 0.33 1.98 0.66 3 1 C2.01 2.485 2.01 2.485 1 4 C1.66 4.33 2.32 4.66 3 5 C0.69 5 -1.62 5 -4 5 C-4 4.34 -4 3.68 -4 3 C-2.1875 1.3125 -2.1875 1.3125 0 0 Z " fill="#1E1C19" transform="translate(99,412)"/>
<path d="M0 0 C0.33 1.32 0.66 2.64 1 4 C-1.475 5.485 -1.475 5.485 -4 7 C-4.33 5.68 -4.66 4.36 -5 3 C-4.360625 2.690625 -3.72125 2.38125 -3.0625 2.0625 C-1.06389179 1.1654837 -1.06389179 1.1654837 0 0 Z " fill="#F8D53B" transform="translate(384,389)"/>
<path d="M0 0 C3.63 0.66 7.26 1.32 11 2 C6.64467851 4.17766075 5.53374042 4.03039555 1 3 C0.67 2.01 0.34 1.02 0 0 Z " fill="#482D2D" transform="translate(250,53)"/>
<path d="M0 0 C0.66 0.33 1.32 0.66 2 1 C-0.97 4.96 -0.97 4.96 -4 9 C-4.33 7.68 -4.66 6.36 -5 5 C-2.5625 2.25 -2.5625 2.25 0 0 Z " fill="#553636" transform="translate(203,34)"/>
<path d="M0 0 C0.99 0.33 1.98 0.66 3 1 C3 3.31 3 5.62 3 8 C2.01 8 1.02 8 0 8 C0 5.36 0 2.72 0 0 Z " fill="#D2D653" transform="translate(142,276)"/>
<path d="M0 0 C0 0.66 0 1.32 0 2 C-0.99 2.33 -1.98 2.66 -3 3 C-4.00642948 4.32848691 -5.00692179 5.66150329 -6 7 C-6.66 7 -7.32 7 -8 7 C-7.8125 5.1875 -7.8125 5.1875 -7 3 C-2.82142857 0 -2.82142857 0 0 0 Z " fill="#CA0D0C" transform="translate(215,30)"/>
<path d="M0 0 C0.66 0.66 1.32 1.32 2 2 C1.9765625 4.1640625 1.9765625 4.1640625 1.625 6.625 C1.51414063 7.44226563 1.40328125 8.25953125 1.2890625 9.1015625 C1.19367188 9.72804688 1.09828125 10.35453125 1 11 C-1.78637633 6.8204355 -0.79562512 4.85331323 0 0 Z " fill="#433E23" transform="translate(130,343)"/>
<path d="M0 0 C0.99 0.66 1.98 1.32 3 2 C0.69 4.31 -1.62 6.62 -4 9 C-4.33 8.01 -4.66 7.02 -5 6 C-4.360625 5.566875 -3.72125 5.13375 -3.0625 4.6875 C-0.73253997 3.08760823 -0.73253997 3.08760823 0 0 Z " fill="#9C0E0A" transform="translate(257,95)"/>
<path d="M0 0 C0.33 0.99 0.66 1.98 1 3 C-0.65 4.65 -2.3 6.3 -4 8 C-4.99 7.67 -5.98 7.34 -7 7 C-4.69 4.69 -2.38 2.38 0 0 Z " fill="#350300" transform="translate(262,94)"/>
<path d="M0 0 C1.98 0.99 3.96 1.98 6 3 C5.67 3.99 5.34 4.98 5 6 C2.36 4.68 -0.28 3.36 -3 2 C-2.01 1.34 -1.02 0.68 0 0 Z " fill="#452524" transform="translate(195,66)"/>
<path d="M0 0 C0.66 0.33 1.32 0.66 2 1 C-1.96 4.465 -1.96 4.465 -6 8 C-6 4.45176068 -5.32265612 3.58072903 -3 1 C-2.01 0.67 -1.02 0.34 0 0 Z " fill="#420908" transform="translate(209,31)"/>
<path d="M0 0 C0.33 0.99 0.66 1.98 1 3 C1.66 3 2.32 3 3 3 C3 4.32 3 5.64 3 7 C2.01 7.33 1.02 7.66 0 8 C-0.98120464 4.94736336 -0.98120464 3.05263664 0 0 Z " fill="#300202" transform="translate(226,27)"/>
<path d="M0 0 C-3.20336822 2.83374881 -5.78087253 3.5205537 -10 4 C-4.4 -2.2 -4.4 -2.2 0 0 Z " fill="#4A2222" transform="translate(217,28)"/>
<path d="M0 0 C0.66 0 1.32 0 2 0 C1.45773019 3.79588866 -0.20127563 5.47211993 -3 8 C-2.45276317 4.62537285 -1.9451 2.91765 0 0 Z " fill="#2B2214" transform="translate(111,397)"/>
<path d="M0 0 C0.433125 0.474375 0.86625 0.94875 1.3125 1.4375 C3.02309613 3.23686957 3.02309613 3.23686957 6 4 C6.6875 6.0625 6.6875 6.0625 7 8 C4.37098712 6.47793991 2.15634036 5.15634036 0 3 C0 2.01 0 1.02 0 0 Z " fill="#580705" transform="translate(230,39)"/>
<path d="M0 0 C0.96661363 3.12180401 0.98988909 5.52083795 0.5625 8.75 C0.40974609 9.94882812 0.40974609 9.94882812 0.25390625 11.171875 C0.12822266 12.07679688 0.12822266 12.07679688 0 13 C-0.33 13 -0.66 13 -1 13 C-1.22245393 11.39773045 -1.42746669 9.79303233 -1.625 8.1875 C-1.74101562 7.29417969 -1.85703125 6.40085937 -1.9765625 5.48046875 C-2 3 -2 3 0 0 Z " fill="#EFF157" transform="translate(410,318)"/>
<path d="M0 0 C0.99 0.66 1.98 1.32 3 2 C1.6875 3.5 1.6875 3.5 0 5 C-0.99 5 -1.98 5 -3 5 C-1.125 1.125 -1.125 1.125 0 0 Z " fill="#C6080B" transform="translate(242,106)"/>
</svg>
